<?xml version="1.0" encoding="utf-8"?>
<!-- Generator: Adobe Illustrator 16.0.0, SVG Export Plug-In . SVG Version: 6.00 Build 0)  -->
<!DOCTYPE svg PUBLIC "-//W3C//DTD SVG 1.1//EN" "http://www.w3.org/Graphics/SVG/1.1/DTD/svg11.dtd">
<svg version="1.1" id="Lag_1" xmlns="http://www.w3.org/2000/svg" xmlns:xlink="http://www.w3.org/1999/xlink" x="0px" y="0px"
	 width="123.913px" height="125.141px" viewBox="0 0 123.913 125.141" enable-background="new 0 0 123.913 125.141"
	 xml:space="preserve">
<g>
	<polygon fill="#202529" points="47.887,70 66.537,70 57.21,45.12 	"/>
	<path fill="#202529" d="M119.077,38.862c-4.675-11.163-12.475-21.043-22.339-27.789C86.88,4.328,74.91,0,62.062,0H7.522
		C5.581,0,3.607,1.151,2.234,2.524C0.863,3.896,0,6.159,0,8.101v109.815c0,1.94,0.863,3.696,2.234,5.068
		C3.607,124.357,5.581,125,7.522,125h54.539l0.18,0.141c17.025-0.413,32.463-7.334,43.609-18.513
		c5.578-5.59,10.096-12.196,13.218-19.59c3.123-7.392,4.846-15.519,4.845-24.047C123.913,54.463,122.194,46.303,119.077,38.862z
		 M89.292,99h-16.04c-2.953,0-5.348-2.085-5.348-5.042c0-2.955,2.395-5.144,5.348-5.144L70.395,81H43.727l-2.857,8h0.301
		c2.953,0,5.347,2.044,5.347,5s-2.394,5-5.347,5H25.13c-2.953,0-5.348-2.044-5.348-5s2.395-5,5.348-5h4.313l22.616-60.734
		c0.782-2.085,2.787-3.49,5.016-3.49c2.229,0,4.215,1.416,4.998,3.5L84.979,89h4.313c2.957,0,5.348,2.044,5.348,5
		S92.244,99,89.292,99z"/>
</g>
</svg>
