<svg width="36" height="36" viewBox="0 0 36 36" fill="none" xmlns="http://www.w3.org/2000/svg">
<path d="M18 0C22.7739 0 27.3523 1.89642 30.7279 5.27208C34.1036 8.64773 36 13.2261 36 18C36 22.7739 34.1036 27.3523 30.7279 30.7279C27.3523 34.1036 22.7739 36 18 36C13.2261 36 8.64773 34.1036 5.27208 30.7279C1.89642 27.3523 0 22.7739 0 18C0 13.2261 1.89642 8.64773 5.27208 5.27208C8.64773 1.89642 13.2261 0 18 0ZM10.125 16.875C9.82663 16.875 9.54048 16.9935 9.3295 17.2045C9.11853 17.4155 9 17.7016 9 18C9 18.2984 9.11853 18.5845 9.3295 18.7955C9.54048 19.0065 9.82663 19.125 10.125 19.125H23.1593L18.3285 23.9535C18.1173 24.1647 17.9986 24.4513 17.9986 24.75C17.9986 25.0487 18.1173 25.3353 18.3285 25.5465C18.5397 25.7577 18.8263 25.8764 19.125 25.8764C19.4237 25.8764 19.7103 25.7577 19.9215 25.5465L26.6715 18.7965C26.7763 18.692 26.8594 18.5679 26.9161 18.4312C26.9728 18.2945 27.002 18.148 27.002 18C27.002 17.852 26.9728 17.7055 26.9161 17.5688C26.8594 17.4321 26.7763 17.308 26.6715 17.2035L19.9215 10.4535C19.7103 10.2423 19.4237 10.1236 19.125 10.1236C18.8263 10.1236 18.5397 10.2423 18.3285 10.4535C18.1173 10.6647 17.9986 10.9513 17.9986 11.25C17.9986 11.5487 18.1173 11.8353 18.3285 12.0465L23.1593 16.875H10.125Z" fill="black"/>
</svg>
